<svg width="20" height="25" viewBox="0 0 20 25" fill="none" xmlns="http://www.w3.org/2000/svg">
<path d="M10 0C4.48597 0 0 4.06163 0 9.05402C0 15.2497 8.94902 24.3454 9.33003 24.7296C9.68791 25.0905 10.3127 25.0898 10.67 24.7296C11.051 24.3454 20 15.2497 20 9.05402C19.9999 4.06163 15.514 0 10 0ZM10 13.6093C7.22575 13.6093 4.9688 11.5658 4.9688 9.05402C4.9688 6.5422 7.22581 4.49874 10 4.49874C12.7742 4.49874 15.0311 6.54224 15.0311 9.05406C15.0311 11.5659 12.7742 13.6093 10 13.6093Z" fill="#FF893B"/>
</svg>
